<?xml version="1.0" encoding="UTF-8" standalone="no"?>
<!-- Created with Inkscape (http://www.inkscape.org/) -->

<svg
   xmlns:dc="http://purl.org/dc/elements/1.1/"
   xmlns:cc="http://creativecommons.org/ns#"
   xmlns:rdf="http://www.w3.org/1999/02/22-rdf-syntax-ns#"
   xmlns:svg="http://www.w3.org/2000/svg"
   xmlns="http://www.w3.org/2000/svg"
   xmlns:sodipodi="http://sodipodi.sourceforge.net/DTD/sodipodi-0.dtd"
   xmlns:inkscape="http://www.inkscape.org/namespaces/inkscape"
   width="17mm"
   height="13mm"
   viewBox="0 0 17 13"
   version="1.1"
   id="svg4411"
   inkscape:version="0.92.1 r15371"
   sodipodi:docname="xbox_tv.svg">
  <defs
     id="defs4405" />
  <sodipodi:namedview
     id="base"
     pagecolor="#ffffff"
     bordercolor="#666666"
     borderopacity="1.0"
     inkscape:pageopacity="0.0"
     inkscape:pageshadow="2"
     inkscape:zoom="5.6"
     inkscape:cx="-0.71428657"
     inkscape:cy="40.638013"
     inkscape:document-units="mm"
     inkscape:current-layer="layer1"
     showgrid="false"
     inkscape:window-width="1920"
     inkscape:window-height="1017"
     inkscape:window-x="-8"
     inkscape:window-y="-8"
     inkscape:window-maximized="1" />
  <metadata
     id="metadata4408">
    <rdf:RDF>
      <cc:Work
         rdf:about="">
        <dc:format>image/svg+xml</dc:format>
        <dc:type
           rdf:resource="http://purl.org/dc/dcmitype/StillImage" />
        <dc:title />
      </cc:Work>
    </rdf:RDF>
  </metadata>
  <g
     inkscape:label="Layer 1"
     inkscape:groupmode="layer"
     id="layer1"
     transform="translate(0,-284)">
    <rect
       style="fill:#28d11f;fill-opacity:1;stroke-width:0.26458332;opacity:1"
       id="rect4584"
       width="14.620873"
       height="9.6149607"
       x="1.2412744"
       y="285.07742" />
    <path
       id="path4009-7"
       d="M 16.259023,284.28367 H 0.84439935 c -0.2193396,0 -0.396875,0.17754 -0.396875,0.39688 v 10.40844 c 0,0.21907 0.1775354,0.39687 0.396875,0.39687 H 4.527664 l -0.46355,0.89403 c -0.1008063,0.19473 -0.024871,0.43418 0.1695979,0.53525 0.058473,0.0299 0.1209146,0.0445 0.1822979,0.0445 0.1434042,0 0.2820458,-0.0781 0.3526896,-0.21457 l 0.6529919,-1.25942 H 11.61241 l 0.653786,1.25942 c 0.07064,0.13652 0.209021,0.21457 0.352425,0.21457 0.06138,0 0.124089,-0.0146 0.182298,-0.045 0.194469,-0.1008 0.270404,-0.33999 0.169598,-0.53472 l -0.46355,-0.89403 h 3.752056 c 0.219075,0 0.396875,-0.1778 0.396875,-0.39687 v -10.40847 c 0,-0.21908 -0.1778,-0.39688 -0.396875,-0.39688 z m -0.396875,10.40871 H 1.2412743 v -9.61496 H 15.862148 Z"
       inkscape:connector-curvature="0"
       style="display:inline;fill:#000000;fill-opacity:1;stroke-width:0.26458332" />
    <g
       style="display:inline"
       id="script.start_xbox"
       transform="matrix(0.09045883,0,0,0.09045883,-14.112769,240.71287)"
       inkscape:label="script.start_xbox">
      <circle
         r="42"
         cy="542.4151"
         cx="252.56602"
         id="path5294"
         style="opacity:1;fill:#ffffff;fill-opacity:1;stroke-width:1.04023242" />
      <path
         id="path4-4"
         d="m 248.07236,584.98218 c -6.54794,-0.62698 -13.17688,-2.97692 -18.87125,-6.69043 -4.77166,-3.11022 -5.84849,-4.39084 -5.84849,-6.9432 0,-5.12742 5.64103,-14.10954 15.293,-24.34662 5.48,-5.81562 13.11464,-12.62848 13.93956,-12.44483 1.60635,0.35841 14.43944,12.8694 19.24468,18.76006 7.5971,9.31092 11.08841,16.93738 9.31411,20.3369 -1.34851,2.58396 -9.71817,7.63535 -15.866,9.57554 -5.06803,1.59954 -11.72364,2.27688 -17.20561,1.75258 z m -31.16493,-18.96445 c -3.96551,-6.08024 -5.96901,-12.06568 -6.9352,-20.72296 -0.32008,-2.85844 -0.20746,-4.49254 0.72415,-10.36148 1.15883,-7.30656 5.32489,-15.76833 10.33364,-20.97178 2.13193,-2.21172 2.32161,-2.27096 4.92182,-1.3922 3.15146,1.06636 6.52027,3.39261 11.74637,8.1162 l 3.05267,2.75872 -1.66958,2.04386 c -7.73344,9.48864 -15.89564,22.94652 -18.96807,31.27007 -1.66958,4.52216 -2.34137,9.06407 -1.62019,10.95489 0.48408,1.27766 0.0395,0.80174 -1.59055,-1.69236 z m 69.60193,1.03378 c 0.39221,-1.91155 -0.10373,-5.42067 -1.26454,-8.96139 -2.51425,-7.66694 -10.92046,-21.92953 -18.63908,-31.6275 l -2.43029,-3.05295 2.62985,-2.41215 c 3.43203,-3.14972 5.81489,-5.0356 8.38744,-6.6381 2.0282,-1.26384 4.92774,-2.38253 6.1745,-2.38253 0.76761,0 3.47353,2.81401 5.65683,5.87486 3.38264,4.73939 5.87022,10.49577 7.13081,16.47924 0.81503,3.8705 0.8832,12.14467 0.13139,16.0053 -0.62239,3.16749 -1.92645,7.27298 -3.19098,10.05836 -0.95829,2.08631 -3.31941,6.13948 -4.35673,7.4586 -0.53348,0.67833 -0.53348,0.67734 -0.2371,-0.78594 z M 248.77378,510.5294 c -3.56244,-1.80688 -9.05725,-3.74706 -12.09214,-4.27037 -1.063,-0.18267 -2.87781,-0.28634 -4.03071,-0.2271 -2.50537,0.12639 -2.39374,-0.004 1.62315,-1.90069 3.33917,-1.57683 6.1251,-2.50397 9.90884,-3.29782 4.25299,-0.89357 12.2502,-0.90345 16.43602,-0.0217 4.51974,0.95281 9.84364,2.93249 12.84296,4.77888 l 0.89308,0.547 -2.04499,-0.10269 c -4.06628,-0.20537 -9.99183,1.43663 -16.35403,4.52907 -1.91854,0.93405 -3.58615,1.67853 -3.70865,1.65878 -0.12152,-0.0237 -1.68539,-0.78496 -3.47748,-1.69334 z"
         style="fill:#107c10;stroke-width:0.98764592"
         inkscape:connector-curvature="0" />
    </g>
  </g>
</svg>
