<?xml version="1.0" encoding="UTF-8" standalone="no"?>
<!-- Created with Inkscape (http://www.inkscape.org/) -->

<svg
   xmlns:dc="http://purl.org/dc/elements/1.1/"
   xmlns:cc="http://creativecommons.org/ns#"
   xmlns:rdf="http://www.w3.org/1999/02/22-rdf-syntax-ns#"
   xmlns:svg="http://www.w3.org/2000/svg"
   xmlns="http://www.w3.org/2000/svg"
   xmlns:sodipodi="http://sodipodi.sourceforge.net/DTD/sodipodi-0.dtd"
   xmlns:inkscape="http://www.inkscape.org/namespaces/inkscape"
   width="1024"
   height="600"
   viewBox="0 0 1024 600"
   version="1.1"
   id="svg8"
   inkscape:version="0.92.2 (5c3e80d, 2017-08-06)"
   sodipodi:docname="floorplan.svg">
  <defs
     id="defs2" />
  <sodipodi:namedview
     id="base"
     pagecolor="#ffffff"
     bordercolor="#666666"
     borderopacity="1.0"
     inkscape:pageopacity="0.0"
     inkscape:pageshadow="2"
     inkscape:zoom="1.979899"
     inkscape:cx="96.442693"
     inkscape:cy="357.37483"
     inkscape:document-units="px"
     inkscape:current-layer="layer1"
     showgrid="false"
     units="px"
     inkscape:window-width="1920"
     inkscape:window-height="1137"
     inkscape:window-x="-8"
     inkscape:window-y="-8"
     inkscape:window-maximized="1"
     showguides="false" />
  <metadata
     id="metadata5">
    <rdf:RDF>
      <cc:Work
         rdf:about="">
        <dc:format>image/svg+xml</dc:format>
        <dc:type
           rdf:resource="http://purl.org/dc/dcmitype/StillImage" />
        <dc:title />
      </cc:Work>
    </rdf:RDF>
  </metadata>
  <text
     xml:space="preserve"
     style="font-style:normal;font-variant:normal;font-weight:normal;font-stretch:normal;font-size:18.66666603px;line-height:1.25;font-family:Arial;-inkscape-font-specification:Arial;letter-spacing:0px;word-spacing:0px;fill:#000000;fill-opacity:1;stroke:none"
     x="75.917969"
     y="52"
     id="sensor.floorplan_date"
     inkscape:label="#text38"><tspan
       sodipodi:role="line"
       id="tspan36"
       x="75.917969"
       y="52">XXXXXXXXXXX</tspan></text>
  <text
     xml:space="preserve"
     style="font-style:normal;font-variant:normal;font-weight:normal;font-stretch:normal;font-size:21.33333397px;line-height:1.25;font-family:Arial;-inkscape-font-specification:Arial;letter-spacing:0px;word-spacing:0px;fill:#000000;fill-opacity:1;stroke:none"
     x="75.90625"
     y="34.999893"
     id="sensor.floorplan_time"
     inkscape:label="#text34"><tspan
       sodipodi:role="line"
       id="tspan32"
       x="75.90625"
       y="34.999893">XX:XX XX</tspan></text>
  <rect
     style="fill:#8c8c8e;fill-opacity:0.83333333;stroke:none;stroke-width:5.99999714;stroke-linecap:butt;stroke-linejoin:round;stroke-miterlimit:4;stroke-dasharray:none;stroke-opacity:0;paint-order:markers stroke fill"
     id="sensor.dark_sky_icon"
     width="60.000004"
     x="11.357147"
     y="8.071435"
     height="60"
     rx="25.000004"
     ry="24.999996"
     inkscape:label="#sensor.dark_sky_icon" />
  <g
     id="upper_floor"
     transform="matrix(1.3333333,0,0,-1.3333333,525.71428,614.28571)"
     display="inline"
     style="display:inline"
     inkscape:label="upper_floor">
    <g
       id="upper"
       display="inline"
       style="display:inline">
      <path
         id="sensor.chris_location"
         d="m 145.73788,290.14561 0.0136,-161.64966 -3.0425,-2.7e-4 v -6.12505 l 3.0425,4.1e-4 v -20.20631 h -29.84313 l -21.46058,20.2044 11.75007,9.9e-4 v 6.12506 l -18.25462,-0.001 -74.03899,69.7053 -0.0136,91.93836 97.35891,0.0137 v 3.03092 h 28.39653 v -3.03079 h 6.08487 z"
         inkscape:connector-curvature="0"
         style="fill:#f9f9f9;fill-rule:nonzero;stroke-width:0.14518" />
      <path
         id="path827"
         d="m 158.92134,296.20855 h -19.26888 v -3.03107 h -28.39653 l -1.3e-4,3.03093 -97.35891,-0.0137 v 46.97942 l 30.71327,26.40056 22.86251,-26.3962 h 81.81389 6.08487 v 20.20617 h 4.05649 v 3.03079 h 28.39639 v -3.03092 h 19.776 v -35.86616 h 3.04251 v -28.28864 h -3.04237 v -3.03093 h -20.28313 v -3.03093 h -28.39639 v 3.03093 z"
         inkscape:connector-curvature="0"
         style="fill:#f9f9f9;fill-rule:nonzero;stroke-width:0.14518" />
      <path
         id="path829"
         d="m 151.83801,102.16527 -0.015,187.98074 h 7.09914 v 3.03093 h 28.39638 v -3.03093 l 1.18562,-0.0709 v -24.17684 l 2.62991,-5.20602 4.8588,2.51753 -1.40383,2.68903 v 24.17671 h 12.9241 l 26.19842,-51.85538 -19.4179,-10.06086 -1.40396,2.68889 -5.29101,-2.74147 4.06738,-8.05073 24.91187,12.49081 48.32931,-95.66016 -35.70992,-34.71787 -97.35891,-0.0136 z"
         inkscape:connector-curvature="0"
         style="fill:#f9f9f9;fill-rule:nonzero;stroke-width:0.14518" />
      <path
         id="sensor.teresa_location"
         d="m 353.34561,203.42879 -63.87052,-62.09631 -75.78895,150.01181 v 7.89954 h -3.04251 v 28.28878 h 3.04238 v 35.86602 h 41.07325 v 6.06186 h -2.02838 v 66.68037 h 7.2423 l 65.3174,-66.6752 h -34.01636 v -6.06185 h 39.95384 l 22.11728,-22.577 0.0137,-137.40225 z"
         inkscape:connector-curvature="0"
         style="fill:#f9f9f9;fill-rule:nonzero;stroke-width:0.14518" />
      <path
         id="path833"
         d="m 159.42247,369.45599 h -4.05663 v 66.68051 l 91.27377,0.0136 v -29.29894 h -37.52376 v -6.06186 h 37.52363 v -31.31957 h -58.82089 l 1.4e-4,-3.03092 h -28.39626 v 3.03106 z"
         inkscape:connector-curvature="0"
         style="fill:#f9f9f9;fill-rule:nonzero;stroke-width:0.14518" />
      <path
         id="path835"
         d="M 115.62844,92.059192 3.7637,198.19594 3.75,347.80267 l 114.514,98.43364 145.9691,0.0137 99.24086,-101.30384 0.0136,-145.77227 L 253.32605,92.072172 Z m 30.12252,36.436758 -0.0136,161.64966 h -6.08501 v 3.03078 3.03106 h 19.26901 v -3.03092 -3.03106 h -7.09913 l 0.015,-187.98074 97.35891,0.0136 35.70993,34.71787 -48.32946,95.66015 -24.91187,-12.4908 -4.06738,8.05074 5.29114,2.74146 1.40384,-2.68902 19.4179,10.061 -26.19843,51.85538 H 194.58762 V 265.9084 l 1.40384,-2.68903 -4.85867,-2.51739 -2.63004,5.206 v 24.17671 l -1.18548,0.0709 v 3.03093 3.03079 h 20.28299 v 3.03079 h 3.04251 3.04251 v -7.89953 l 75.78894,-150.01196 63.87052,62.09644 -0.0136,137.40225 -22.11728,22.577 h -39.95388 v 6.06185 h 34.01622 l -65.3174,66.6752 h -7.24216 v -66.68037 h 2.02838 v -6.06189 h -41.07331 v -35.866 h -3.04251 -3.04251 v 35.86616 h -19.776 v 3.03079 3.03106 h 58.82089 v 31.31957 h -37.52363 v 6.06185 h 37.52376 v 29.29896 l -91.2739,-0.0137 v -66.68051 h 4.05662 v -3.03092 -3.03094 h -4.05649 v -20.20617 h -6.08487 l -0.0136,92.94867 H 122.02051 L 44.59071,369.57922 13.87743,343.17866 v -46.97942 l 97.35892,0.0137 1.3e-4,-3.03093 v -3.03092 l -97.35891,-0.0137 0.0136,-91.93836 74.03899,-69.70529 18.25476,0.001 v -6.12505 l -11.75021,-9e-4 21.46072,-20.2044 h 29.84313 v 20.2063 l -3.0425,-4.1e-4 v 6.12492 l 3.0425,4.1e-4 z"
         inkscape:connector-curvature="0"
         style="fill:#808080;fill-rule:nonzero;stroke-width:0.14518" />
      <path
         id="path953"
         d="M 149.28315,343.18715 H 67.46926"
         stroke-miterlimit="10"
         inkscape:connector-curvature="0"
         style="fill:none;stroke:#000000;stroke-width:0.53748;stroke-miterlimit:10" />
      <path
         id="path1009"
         d="m 44.60676,369.57667 22.8625,-26.3962"
         stroke-miterlimit="10"
         inkscape:connector-curvature="0"
         style="fill:none;stroke:#000000;stroke-width:0.53748;stroke-miterlimit:10" />
      <path
         id="path1015"
         d="M 159.42274,366.42506 H 187.819"
         stroke-miterlimit="10"
         inkscape:connector-curvature="0"
         style="fill:none;stroke:#000000;stroke-width:0.14518;stroke-miterlimit:10" />
      <path
         id="path1021"
         d="M 210.64064,327.53234 V 299.24356"
         stroke-miterlimit="10"
         inkscape:connector-curvature="0"
         style="fill:none;stroke:#000000;stroke-width:0.14518;stroke-miterlimit:10" />
      <path
         id="path1027"
         d="M 187.31799,293.17993 H 158.92161"
         stroke-miterlimit="10"
         inkscape:connector-curvature="0"
         style="fill:none;stroke:#000000;stroke-width:0.14518;stroke-miterlimit:10" />
      <path
         id="path1033"
         d="m 111.25621,293.17367 h 28.39652"
         stroke-miterlimit="10"
         inkscape:connector-curvature="0"
         style="fill:none;stroke:#000000;stroke-width:0.14518;stroke-miterlimit:10" />
    </g>
  </g>
  <g
     inkscape:label="Layer 1"
     inkscape:groupmode="layer"
     id="layer1"
     style="display:inline" />
  <path
     id="switch.reading_light"
     d="m 706.09663,297.09887 c 5.38285,0 9.74108,-4.35823 9.74108,-9.74108 0,-5.38286 -4.35823,-9.74109 -9.74108,-9.74109 -5.38286,0 -9.74109,4.36545 -9.74109,9.74109 0,5.37563 4.35823,9.74108 9.74109,9.74108 z m -3.64389,-9.22878 1.26273,-5.05093 c 0.065,-0.24532 0.28862,-0.42572 0.54118,-0.42572 h 3.73768 c 0.25977,0 0.47623,0.17318 0.54117,0.42572 l 1.26274,5.05093 c 0.0866,0.35356 -0.1804,0.6927 -0.54117,0.6927 h -2.74194 v 1.52251 c 0,0.7432 0.52674,1.36374 1.22666,1.50806 0.1876,0.0361 0.31748,0.20925 0.31748,0.39685 0,0.22369 -0.18038,0.40407 -0.40408,0.40407 h -3.03055 c -0.22369,0 -0.40408,-0.18038 -0.40408,-0.40407 0,-0.1876 0.12989,-0.35357 0.3175,-0.39685 0.69991,-0.14432 1.21943,-0.76486 1.21943,-1.50806 v -1.52251 h -2.76358 c -0.368,0 -0.62776,-0.33914 -0.54117,-0.6927 z"
     inkscape:connector-curvature="0"
     style="stroke-width:0.99999994"
     inkscape:label="#path883" />
  <g
     inkscape:groupmode="layer"
     id="layer2"
     inkscape:label="Devices" />
</svg>
