<svg width="500" height="500" xmlns="http://www.w3.org/2000/svg" xmlns:svg="http://www.w3.org/2000/svg">
 <metadata id="metadata821">image/svg+xml</metadata>
 <g>
  <title>Upper Floor</title>
  <g display="inline" transform="matrix(1.3333333,0,0,-1.3333333,0,600) " id="upper_floor">
   <g display="inline" id="upper">
    <path fill="#f9f9f9" fill-rule="nonzero" stroke-width="0.14518" d="m145.73788,290.145612l0.0136,-161.64966l-3.0425,-0.00027l0,-6.12505l3.0425,0.00041l0,-20.20631l-29.84313,0l-21.46058,20.2044l11.75007,0.00099l0,6.12506l-18.25462,-0.001l-74.03899,69.7053l-0.0136,91.93836l97.35891,0.0137l0,3.03092l28.39653,0l0,-3.03079l6.08487,0l0.00694,-0.00606z" id="device_tracker.chris_phone"/>
    <path fill="#f9f9f9" fill-rule="nonzero" stroke-width="0.14518" d="m158.92134,296.208552l-19.26888,0l0,-3.03107l-28.39653,0l-0.00013,3.03093l-97.35891,-0.0137l0,46.97942l30.71327,26.40056l22.86251,-26.3962l81.81389,0l6.08487,0l0,20.20617l4.05649,0l0,3.03079l28.39639,0l0,-3.03092l19.776,0l0,-35.86616l3.04251,0l0,-28.28864l-3.04237,0l0,-3.03093l-20.28313,0l0,-3.03093l-28.39639,0l0,3.03093l0.00041,0.00975z" id="path827"/>
    <path fill="#f9f9f9" fill-rule="nonzero" stroke-width="0.14518" d="m151.83801,102.165272l-0.015,187.98074l7.09914,0l0,3.03093l28.39638,0l0,-3.03093l1.18562,-0.0709l0,-24.17684l2.62991,-5.20602l4.8588,2.51753l-1.40383,2.68903l0,24.17671l12.9241,0l26.19842,-51.85538l-19.4179,-10.06086l-1.40396,2.68889l-5.29101,-2.74147l4.06738,-8.05073l24.91187,12.49081l48.32931,-95.66016l-35.70992,-34.71787l-97.35891,-0.0136l-0.0004,0.01012z" id="path829"/>
    <path fill="#f9f9f9" fill-rule="nonzero" stroke-width="0.14518" d="m353.34561,203.428792l-63.87052,-62.09631l-75.78895,150.01181l0,7.89954l-3.04251,0l0,28.28878l3.04238,0l0,35.86602l41.07325,0l0,6.06186l-2.02838,0l0,66.68037l7.2423,0l65.3174,-66.6752l-34.01636,0l0,-6.06185l39.95384,0l22.11728,-22.577l0.0137,-137.40225l-0.01343,0.00423z" id="path831"/>
    <path fill="#f9f9f9" fill-rule="nonzero" stroke-width="0.14518" d="m159.42247,369.455992l-4.05663,0l0,66.68051l91.27377,0.0136l0,-29.29894l-37.52376,0l0,-6.06186l37.52363,0l0,-31.31957l-58.82089,0l0.00014,-3.03092l-28.39626,0l0,3.03106l0,-0.01388z" id="path833"/>
    <path fill="#808080" fill-rule="nonzero" stroke-width="0.14518" d="m115.62844,92.059192l-111.86474,106.13675l-0.0137,149.60673l114.514,98.43364l145.9691,0.0137l99.24086,-101.30384l0.0136,-145.77227l-110.16151,-107.10173l-137.69761,-0.01298zm30.12252,36.43676l-0.0136,161.64966l-6.08501,0l0,3.03078l0,3.03106l19.26901,0l0,-3.03092l0,-3.03106l-7.09913,0l0.015,-187.98074l97.35891,0.0136l35.70993,34.71787l-48.32946,95.66015l-24.91187,-12.4908l-4.06738,8.05074l5.29114,2.74146l1.40384,-2.68902l19.4179,10.061l-26.19843,51.85538l-12.92419,0l0,-24.17671l1.40384,-2.68903l-4.85867,-2.51739l-2.63004,5.206l0,24.17671l-1.18548,0.0709l0,3.03093l0,3.03079l20.28299,0l0,3.03079l3.04251,0l3.04251,0l0,-7.89953l75.78894,-150.01196l63.87052,62.09644l-0.0136,137.40225l-22.11728,22.577l-39.95388,0l0,6.06185l34.01622,0l-65.3174,66.6752l-7.24216,0l0,-66.68037l2.02838,0l0,-6.06189l-41.07331,0l0,-35.866l-3.04251,0l-3.04251,0l0,35.86616l-19.776,0l0,3.03079l0,3.03106l58.82089,0l0,31.31957l-37.52363,0l0,6.06185l37.52376,0l0,29.29896l-91.2739,-0.0137l0,-66.68051l4.05662,0l0,-3.03092l0,-3.03094l-4.05649,0l0,-20.20617l-6.08487,0l-0.0136,92.94867l-27.23896,0l-77.4298,-66.55669l-30.71328,-26.40056l0,-46.97942l97.35892,0.0137l0.00013,-3.03093l0,-3.03092l-97.35891,-0.0137l0.0136,-91.93836l74.03899,-69.70529l18.25476,0.001l0,-6.12505l-11.75021,-0.0009l21.46072,-20.2044l29.84313,0l0,20.2063l-3.0425,-0.00041l0,6.12492l3.0425,0.00041l0.0124,0.00034z" id="path835"/>
    <path fill="none" stroke="#000000" stroke-width="0.53748" stroke-miterlimit="10" d="m149.28315,343.187152l-81.81389,0" id="path953"/>
    <path fill="none" stroke="#000000" stroke-width="0.53748" stroke-miterlimit="10" d="m44.60676,369.576672l22.8625,-26.3962" id="path1009"/>
    <path fill="none" stroke="#000000" stroke-width="0.14518" stroke-miterlimit="10" d="m159.42274,366.425062l28.39626,0" id="path1015"/>
    <path fill="none" stroke="#000000" stroke-width="0.14518" stroke-miterlimit="10" d="m210.64064,327.532342l0,-28.28878" id="path1021"/>
    <path fill="none" stroke="#000000" stroke-width="0.14518" stroke-miterlimit="10" d="m187.31799,293.179932l-28.39638,0" id="path1027"/>
    <path fill="none" stroke="#000000" stroke-width="0.14518" stroke-miterlimit="10" d="m111.25621,293.173672l28.39652,0" id="path1033"/>
   </g>
  </g>
 </g>
</svg>